<?xml version="1.0" encoding="iso-8859-1"?>
<!-- Uploaded to: SVG Repo, www.svgrepo.com, Generator: SVG Repo Mixer Tools -->
<svg height="800px" width="800px" version="1.1" id="Layer_1" xmlns="http://www.w3.org/2000/svg" xmlns:xlink="http://www.w3.org/1999/xlink" 
	 viewBox="0 0 512 512" xml:space="preserve">
<g>
	<path style="fill:#A1633D;" d="M128.981,382.557v73.464c0,2.64-1.918,4.779-4.301,4.779h-62.13c-2.382,0-4.311-2.139-4.311-4.779
		v-73.464H128.981z"/>
	<path style="fill:#A1633D;" d="M453.762,383.063v73.426c0,2.382-1.929,4.311-4.311,4.311h-62.13c-2.371,0-4.301-1.93-4.301-4.311
		v-73.426H453.762z"/>
</g>
<g>
	<path style="fill:#8C5635;" d="M402.422,383.063V460.8h-15.101c-2.371,0-4.301-1.93-4.301-4.311v-73.426H402.422z"/>
	<path style="fill:#8C5635;" d="M77.641,383.063V460.8H62.539c-2.371,0-4.301-1.93-4.301-4.311v-73.426H77.641z"/>
</g>
<path style="fill:#B36E44;" d="M512,340.755v45.164c0,2.371-1.93,4.301-4.311,4.301H4.311c-2.382,0-4.311-1.93-4.311-4.301v-45.164
	c0-2.382,1.93-4.301,4.311-4.301h271.155c0.819,0.022,1.628,0.022,2.436,0h85.142c0.819,0.022,1.628,0.022,2.425,0h82.48
	c0.819,0.022,1.628,0.022,2.425,0h57.312C510.07,336.454,512,338.372,512,340.755z"/>
<path style="fill:#8C5635;" d="M19.402,336.454v53.765H4.311c-2.382,0-4.311-1.93-4.311-4.301v-45.164
	c0-2.382,1.93-4.301,4.311-4.301L19.402,336.454L19.402,336.454z"/>
<path style="fill:#F7EDE3;" d="M334.893,291.425c-0.422,24.681-20.384,44.411-44.855,45.028c-0.772,0.021-1.544,0.021-2.327,0H52.46
	c-25.84,0-47.068-20.716-47.193-46.485C4.938,223.669,59.244,124.802,109.772,73.746c14.114-14.266,33.366-22.328,53.452-22.513
	c2.327-0.032,4.592-0.032,6.857-0.032c9.831,0,22.011,5.321,35.281,14.615C261.242,104.907,336.231,214.208,334.893,291.425z"/>
<g>
	<path style="fill:#EBE1D8;" d="M23.176,289.966C22.847,223.668,77.152,124.801,127.68,73.745
		c12.604-12.739,29.306-20.513,47.038-22.168c-1.596-0.24-3.147-0.377-4.639-0.377c-2.265,0-4.53,0-6.857,0.03
		c-20.086,0.185-39.337,8.247-53.452,22.513C59.245,124.801,4.938,223.668,5.267,289.966c0.123,25.769,21.351,46.485,47.193,46.485
		h17.909C44.528,336.452,23.3,315.736,23.176,289.966z"/>
	<path style="fill:#EBE1D8;" d="M418.525,291.42c-0.42,24.684-20.383,44.42-44.851,45.034h-83.634
		c24.468-0.614,44.431-20.35,44.851-45.034c1.336-77.21-73.653-186.508-129.531-225.603c2.296-1.456,4.721-2.889,7.233-4.236
		c0.744-0.41,1.498-0.809,2.253-1.196c9.992-5.142,21.267-9.054,32.014-9.151c2.338-0.033,4.591-0.033,6.865-0.033
		c9.184,0,20.393,4.646,32.638,12.805h0.01C342.49,101.43,419.883,212.992,418.525,291.42z"/>
</g>
<path style="fill:#E3DAD0;" d="M499.626,291.42c-0.42,24.684-20.383,44.42-44.862,45.034c-0.754,0.022-1.531,0.022-2.318,0h-78.773
	c24.468-0.614,44.431-20.35,44.851-45.034c1.358-78.428-76.035-189.99-132.15-227.415c3.04-1.93,6.306-3.686,9.723-5.25
	c0.841-0.388,1.693-0.765,2.555-1.121c9.303-3.913,19.531-6.316,29.297-6.403c2.338-0.031,4.591-0.031,6.866-0.031
	C386.08,51.2,501.286,195.886,499.626,291.42z"/>
<path style="fill:#362928;" d="M206.709,336.454H88.903v-93.767c0-1.482,1.201-2.682,2.682-2.682h112.441
	c1.482,0,2.682,1.201,2.682,2.682V336.454z"/>
</svg>